<svg width="96" height="27" viewBox="0 0 96 27" fill="none" xmlns="http://www.w3.org/2000/svg">
<path d="M9.7 0.727999C12.364 0.727999 14.692 1.256 16.684 2.312C18.676 3.368 20.212 4.856 21.292 6.776C22.396 8.672 22.948 10.868 22.948 13.364C22.948 15.836 22.396 18.032 21.292 19.952C20.212 21.872 18.664 23.36 16.648 24.416C14.656 25.472 12.34 26 9.7 26H0.232V0.727999H9.7ZM9.304 20.672C11.632 20.672 13.444 20.036 14.74 18.764C16.036 17.492 16.684 15.692 16.684 13.364C16.684 11.036 16.036 9.224 14.74 7.928C13.444 6.632 11.632 5.984 9.304 5.984H6.388V20.672H9.304ZM35.8563 0.727999C38.5203 0.727999 40.8483 1.256 42.8403 2.312C44.8323 3.368 46.3683 4.856 47.4483 6.776C48.5523 8.672 49.1043 10.868 49.1043 13.364C49.1043 15.836 48.5523 18.032 47.4483 19.952C46.3683 21.872 44.8203 23.36 42.8043 24.416C40.8123 25.472 38.4963 26 35.8563 26H26.3883V0.727999H35.8563ZM35.4603 20.672C37.7883 20.672 39.6003 20.036 40.8963 18.764C42.1923 17.492 42.8403 15.692 42.8403 13.364C42.8403 11.036 42.1923 9.224 40.8963 7.928C39.6003 6.632 37.7883 5.984 35.4603 5.984H32.5443V20.672H35.4603ZM69.3205 8.72C68.8645 7.88 68.2045 7.244 67.3405 6.812C66.5005 6.356 65.5045 6.128 64.3525 6.128C62.3605 6.128 60.7645 6.788 59.5645 8.108C58.3645 9.404 57.7645 11.144 57.7645 13.328C57.7645 15.656 58.3885 17.48 59.6365 18.8C60.9085 20.096 62.6485 20.744 64.8565 20.744C66.3685 20.744 67.6405 20.36 68.6725 19.592C69.7285 18.824 70.4965 17.72 70.9765 16.28H63.1645V11.744H76.5565V17.468C76.1005 19.004 75.3205 20.432 74.2165 21.752C73.1365 23.072 71.7565 24.14 70.0765 24.956C68.3965 25.772 66.5005 26.18 64.3885 26.18C61.8925 26.18 59.6605 25.64 57.6925 24.56C55.7485 23.456 54.2245 21.932 53.1205 19.988C52.0405 18.044 51.5005 15.824 51.5005 13.328C51.5005 10.832 52.0405 8.612 53.1205 6.668C54.2245 4.7 55.7485 3.176 57.6925 2.096C59.6365 0.991999 61.8565 0.439999 64.3525 0.439999C67.3765 0.439999 69.9205 1.172 71.9845 2.636C74.0725 4.1 75.4525 6.128 76.1245 8.72H69.3205ZM86.1224 5.66V10.772H94.3664V15.524H86.1224V21.068H95.4464V26H79.9664V0.727999H95.4464V5.66H86.1224Z" fill="white"/>
</svg>
