<svg width="28" height="28" viewBox="0 0 28 28" fill="none" xmlns="http://www.w3.org/2000/svg">
<path d="M27.53 12.6536L23.2865 8.09641V2.83203C23.2865 1.88016 22.5682 1.10874 21.6806 1.10874C20.7949 1.10874 20.0767 1.88016 20.0767 2.83203V4.6494L16.917 1.25606C15.3549 -0.420677 12.6388 -0.417703 11.0802 1.25909L0.469768 12.6536C-0.156589 13.3276 -0.156589 14.4182 0.469768 15.0912C1.09641 15.765 2.11388 15.765 2.7403 15.0912L13.3497 3.69632C13.6953 3.32709 14.3045 3.32709 14.6483 3.69522L25.2595 15.0912C25.5742 15.4281 25.9844 15.5957 26.3945 15.5957C26.8055 15.5957 27.2164 15.4279 27.5301 15.0912C28.1567 14.4183 28.1567 13.3277 27.53 12.6536Z" fill="white"/>
<path d="M14.5575 6.9669C14.2492 6.63603 13.7501 6.63603 13.4428 6.9669L4.10979 16.9868C3.96244 17.145 3.87891 17.361 3.87891 17.5863V24.8945C3.87891 26.6094 5.17367 27.9998 6.77048 27.9998H11.3912V20.3148H16.608V27.9998H21.2288C22.8256 27.9998 24.1203 26.6094 24.1203 24.8945V17.5863C24.1203 17.361 24.0375 17.145 23.8894 16.9868L14.5575 6.9669Z" fill="white"/>
</svg>
