<svg width="25" height="28" viewBox="0 0 25 28" fill="none" xmlns="http://www.w3.org/2000/svg">
<path d="M22.2902 20.0149L17.0984 17.7861C16.6087 17.5756 16.3043 17.1528 16.3043 16.6824V15.1046C16.4288 14.9739 16.5598 14.8251 16.6951 14.6608C17.3685 13.8441 17.9082 12.9351 18.3005 11.9546C19.0674 11.6527 19.5652 11.0017 19.5652 10.2667V8.4C19.5652 7.9506 19.3696 7.5152 19.0217 7.175V4.6928C19.0522 4.43613 19.1717 2.90827 17.8848 1.6478C16.7685 0.5544 14.9571 0 12.5 0C10.0429 0 8.23152 0.5544 7.11522 1.64733C5.82826 2.9078 5.94783 4.43613 5.97826 4.6928V7.175C5.63043 7.5152 5.43478 7.9506 5.43478 8.4V10.2667C5.43478 10.8346 5.73533 11.3643 6.24837 11.7175C6.7462 13.4101 7.78804 14.6855 8.15217 15.0948V16.639C8.15217 17.0907 7.86522 17.5051 7.4038 17.7217L2.55543 19.9925C0.978804 20.7312 0 22.1471 0 23.6889V25.2C0 27.4148 8.17663 28 12.5 28C16.8234 28 25 27.4148 25 25.2V23.7799C25 22.1755 23.9614 20.7326 22.2902 20.0149Z" fill="white"/>
</svg>
