<svg width="19" height="28" viewBox="0 0 19 28" fill="none" xmlns="http://www.w3.org/2000/svg">
<path d="M14.6815 21.002H4.31784V20.1273C4.3014 18.715 3.73274 17.3673 2.73669 16.3789C-0.943037 12.6007 -0.907403 6.51841 2.81597 2.78437C6.53955 -0.949446 12.5447 -0.924887 16.2384 2.83926C19.9318 6.60362 19.9189 12.6861 16.2093 16.434C15.2322 17.4081 14.6819 18.7385 14.6815 20.1273V21.002Z" fill="white"/>
<path d="M5.18199 22.751H13.8183C14.2955 22.751 14.682 23.1424 14.682 23.6257C14.682 24.1088 14.2955 24.5004 13.8183 24.5004H5.18199C4.70506 24.5004 4.31836 24.1088 4.31836 23.6257C4.31836 23.1424 4.70506 22.751 5.18199 22.751Z" fill="white"/>
<path d="M6.90856 26.251H12.0904C12.5675 26.251 12.954 26.6424 12.954 27.1257C12.954 27.6088 12.5675 28.0004 12.0904 28.0004H6.90856C6.43162 28.0004 6.04492 27.6088 6.04492 27.1257C6.04492 26.6424 6.43162 26.251 6.90856 26.251Z" fill="white"/>
<path d="M3.45508 8.75586H5.18235V10.5053H3.45508V8.75586Z" fill="white"/>
<path d="M6.91016 10.5053H8.63743V21.002H10.3647V10.5053H12.092V8.75586H6.91016V10.5053Z" fill="white"/>
<path d="M13.8184 8.75586H15.5456V10.5053H13.8184V8.75586Z" fill="white"/>
</svg>
