<svg width="28" height="28" viewBox="0 0 28 28" fill="none" xmlns="http://www.w3.org/2000/svg">
<path d="M24.6667 13.3333H22.6667V8C22.6667 6.53333 21.4667 5.33333 20 5.33333H14.6667V3.33333C14.6667 1.46667 13.2 0 11.3333 0C9.46667 0 8 1.46667 8 3.33333V5.33333H2.66667C1.2 5.33333 0 6.53333 0 8V13.0667H2C4 13.0667 5.6 14.6667 5.6 16.6667C5.6 18.6667 4 20.2667 2 20.2667H0V25.3333C0 26.8 1.2 28 2.66667 28H7.73333V26C7.73333 24 9.33333 22.4 11.3333 22.4C13.3333 22.4 14.9333 24 14.9333 26V28H20C21.4667 28 22.6667 26.8 22.6667 25.3333V20H24.6667C26.5333 20 28 18.5333 28 16.6667C28 14.8 26.5333 13.3333 24.6667 13.3333Z" fill="white"/>
</svg>
